<?xml version="1.0" standalone="no"?><!DOCTYPE svg PUBLIC "-//W3C//DTD SVG 1.1//EN" "http://www.w3.org/Graphics/SVG/1.1/DTD/svg11.dtd"><svg t="1635089629339" class="icon" viewBox="0 0 1218 1024" version="1.1" xmlns="http://www.w3.org/2000/svg" p-id="7524" xmlns:xlink="http://www.w3.org/1999/xlink" width="237.890625" height="200"><defs><style type="text/css"></style></defs><path d="M45.22353487 655.21823441c7.60706343-22.02510279 20.02013953-53.66222953-1.17938957-40.83636796-2.94847464 1.97547711-7.60706343 1.17938958-3.62662308-10.02481215a163.34547047 163.34547047 0 0 1 28.4232905-52.0405697c18.01517766-22.40840348 54.84162046-37.62253035 23.58779442-58.96948335 1.20887435-4.80601266 8.01985028-11.61698858 14.7423705-19.60735269 4.39322718-5.60210155 10.2017208-13.62195046-2.41774872-34.6445723-4.80601266-12.00028926-10.79141491-62.44868391-4.80601265-100.24812291 2.94847464-31.22434127 4.80601266-46.85125497-2.38826532-58.96948334-5.89694793-5.89694793-35.02787299-13.76937432-17.42548218 47.44095044-8.99284644-7.81345685-39.00831335-33.40621317-25.20945425-97.47655689 7.1942766-16.62939466 21.61231596-47.17558749 66.0458222-35.85344667 10.2017208 5.42519291 28.21689844 11.41059515 36.64953421 57.67215603 1.17938958 0 5.39570813 8.28521188 7.78397206-11.17471831s2.94847464-82.55727777-60.03093519-65.10230947c2.38826395-3.59713831 33.61260522-44.52196058 88.86701253-5.74952406 4.80601266 4.54064968 19.81374611 30.95897831 9.61202532 64.6010683-2.94847464 4.21631854-6.6045825 10.82089969 3.5971383 9.61202668s90.665581-25.23893903 69.05326641-88.86701253c-2.94847464-6.63406727-16.21660781-37.85840855-67.25469658-24.64924355 1.20887435-6.6045825 20.40344159-35.70602279 78.07559626-30.16289077 17.98569288 3.74456216 57.64266988 24.7082131 60.6206293 69.46605187-1.79856983 6.95839842-2.94847464 17.69084513 4.21631855 12.94380066s21.02262048-12.64895427 22.82119031-44.75783742c7.1942766 14.7423705 27.62720296 80.78819271-48.6498248 138.57828647 12.02977405 2.94847464 97.29964827 29.48474236 106.88219018 88.27731705-16.8063033-15.62691371-94.85241477-76.27702778-207.1597965-40.24667247-30.01546692 19.224052-71.44152899 48.64982347-69.0532664 119.50165831 0.61918025 1.79856983 72.65040335 0 40.83636795-40.24667247-2.38826395-4.18683378-10.2017208-4.18683378 0.58969548-7.78397208s39.65697837-24.61975878 83.47130303-12.61946952c32.43321563 7.1942766 88.45422568 22.05458755 63.06786279-23.35191488 5.89694793 1.73960028 54.04553158-14.4770089 89.456708 29.95649738-9.61202532-0.58969547-51.03808876-13.20916498-48.64982482 1.20887435s-1.17938958 28.21689844-45.61289584 21.02262049-124.89736646-23.4403692-96.0907739-9.61202534c10.82089969 6.6045825 5.39570813 15.59742892-6.60458114 19.81374614s-51.62778287 18.60487177-67.25469658 34.23178545c-6.6045825 5.89694793-12.58998474 19.224052 1.20887437 10.79141626s155.91531569-98.8623399 346.47520229-9.99532737c21.61231596 12.00028926 152.11178397 96.0907739 220.98813902 72.06070924 16.01021441-5.60210155 46.43846815-33.64209 17.69084514-83.26491097a349.01089012 349.01089012 0 0 0-79.25498585-39.24419157c-28.0399898-9.61202532-156.12170773-44.05020421-180.15177241-112.89707718-10.40811421-40.04027908-34.43817887-124.5140644 52.83665724-182.80539931 12.82586292-4.59961924 13.00277157-7.22376139 24.41336672 4.18683377s51.65726764 36.08932349 37.2392283 17.45496695c-15.00773345-11.44007994-38.33016491-20.46241114-38.33016357-68.4930557 10.2017208 10.2017208 40.21718772 24.61975878 58.23236401 24.61975879s45.64238061 2.38826395 45.02320173 30.01546825c-2.94847464 5.89694793-6.69303681 18.04466243-24.70821446 6.63406593-5.89694793-5.39570813-4.00992513-10.52605331-4.71755834-19.90220044 0 0-17.21908876 1.17938958-12.00028926 24.23645807 1.79856983 7.93139595 21.17004435 24.88512175 57.55421555 14.12319163 0 0-2.94847464 10.14275125-6.51612817 9.75944918s-67.25469658 2.94847464-80.05107337-2.94847464-27.62720296-7.7544873-42.04524231-17.98569152c-5.89694793-5.42519291-19.99065476-10.64399241-13.209165-2.24084143s40.83636796 54.45831842 102.87226505 56.46328165c-2.80105077-0.41278682 10.02481216 4.00992513-0.38330206 7.60706343s-53.24944404 12.4130761-108.09106317-10.82090103c-1.59217642-0.79608753-14.7423705-4.39322718-4.80601266 4.80601266s59.73608745 50.56633237 143.70863163 27.62720434c6.42767386-1.20887435 7.22376139-0.73711798 6.42767386 6.84045932s-4.4227106 18.36899359-17.69084513 31.1948565c-4.39322718 1.20887435-13.62195046 13.62195046 2.94847328 8.40315232s40.42358113-10.37862945 66.04582221-32.81651767c2.94847464 4.39322718 5.21879949 0.79608753 7.22376138 21.19952909-0.41278682 3.62662309 0 14.97824869 9.19923985 6.48664342s20.63931977-17.69084513 23.58779306-40.09924864c5.69055452-2.80105077 27.12596318-1.62166119 27.12596319-1.62166117v5.21879948a155.17819634 155.17819634 0 0 0-18.25105584 0.38330071c-2.771566 0-2.35877918-1.97547711-2.77156465 5.2187995s-4.80601266 40.42358113-53.66223088 51.65726764c-0.38330206-4.80601266 4.83549742-14.7423705 4.42271196-22.43788825 0.38330206-4.80601266 4.80601266-14.00525251-6.8109759-6.39818909s-50.12406077 34.43817887-106.14507084 18.42796449c6.39818908-4.00992513 37.62253035-12.02977405 49.23951893-30.04495305 2.00496189-1.59217642 8.10830459-10.37862945-2.15238575-7.99036413s-50.27148464 2.80105077-62.6845621 2.00496187c-2.94847464 0-5.89694793-0.32433251-5.89694793 8.63902917s-8.84542257 36.17777781 50.44839328 45.78980448c43.04772326 6.9878832 91.40270034 10.93883877 134.39145406 24.56079058-1.50372209 2.94847464-3.09589852 5.89694793-4.77652927 8.69799871-38.97882859-12.08874358-77.39744782-16.62939466-77.5743551-15.62691371 2.68311167 6.6045825 3.30229055 19.81374611 3.5971383 27.56823344s-7.51860911 5.45467767-9.31717893 2.15238712c0-14.12319161-3.30229055-20.63931977-10.2017208-29.13092509s-34.82147958-6.89943023-45.64237926-5.89694926-15.30258119 9.61202532-20.63931978 18.92920426-8.84542257-2.71259645-7.96088073-5.72003929c2.94847464-3.30229055 19.66632225-20.63931977 19.96117-22.20201141-55.84410141-18.31002403-39.03779813-50.12406077-38.12377016-57.96700241 0.7076332-6.10334135 0-5.42519291-0.14742387-5.10086039-19.78426136-1.56269162-43.69638693-17.69084513-43.69638827-17.69084516-7.51860911-4.48168015-12.32462178 8.84542257-14.00525251 22.70325121a59.20536154 59.20536154 0 0 0 3.95095558 26.24142134c23.94161034 52.65974859 64.60106967 59.94248088 69.79038438 61.06289956 4.57013448 42.51699733 22.43788825 52.45335516 36.0303553 60.85650748 53.24944404 19.224052 102.48896298-6.8109759 110.09602507-12.41307608s20.02013953-2.41774872 27.62720296 1.20887435c108.47436523 49.62282098 84.47378533 158.92275851 81.25994909 173.34079786s-10.40811421 8.40315097-10.40811421 8.40315096c-48.8267321-48.03064456-113.69316472-9.19923984-118.88247944-5.60210154s-1.20887435 4.00992513 0.79608889 3.59713966c42.84132984-19.60735272 72.85679676-5.89694793 88.07092365 0.41278548 47.17558749 28.4232905 37.62253035 78.45889832 38.3301649 85.65317492 81.25994908-51.62778287 65.24973333-167.32590949 63.65755692-176.9084514-37.23922967-82.08552139-44.84629174-78.87168514-88.86701117-111.09850736a171.63068235 171.63068235 0 0 0-40.01079566-20.63931843c1.73960028-2.59465736 3.47919921-5.36622336 5.18931473-8.31469798a196.78116705 196.78116705 0 0 1 27.74514206 13.62195181c47.70631206 31.8435215 130.55843757 71.47101377 104.14010894 219.779266 5.42519291 4.80601266 59.44123973 19.8432309 75.65784754-27.59771956 8.40315097-18.63435654 13.20916498-43.25411667 6.6045825-59.47072313s-18.60487177-33.61260522-40.80688319-31.81403675c-12.02977405 1.17938958-22.82119032-4.21631854-35.38169028-21.61231596s-22.23149484-66.07530698 4.80601266-93.08332971c0.58969547 8.99284644-2.24084007 69.05326504 21.70077028 46.82176884 3.50868399 13.20916498 6.51612817 33.64209 37.74046944 41.45554821 1.20887435 1.17938958 14.41803936 1.79856983 4.80601267-16.83578806-5.89694793-12.58998474-12.61946951-26.71317635-23.41088443-33.90745296s-15.62691371-12.91431725-10.5260533-23.73521692 9.61202532-43.84381079 66.6650011-42.92978417c-0.29484774 2.68311167 5.69055452 0.88454185 0 5.10086039s-47.44094909 41.27863821-19.81374611 38.74295039c0.88454185 9.28769416-0.29484774 43.51947962 13.50401134 56.43379553 2.71259645 5.89694793 7.34170048 15.00773345 8.84542258 0s-2.94847464-66.3406686 4.42271197-72.94525108 37.82892377-35.73550755 90.37073325-2.41774871c0.91402662 2.71259645 5.39570813 5.10086039-2.68311167 4.21631854s-38.33016491-3.9214708-50.12406078 5.1008604c-5.69055452 4.80601266-5.10086039 8.40315097 8.40315096 9.28769282 0.58969547 0.61918025 5.89694793 1.20887435-0.88454184 7.22376138s-24.03006465 25.8286345-24.61975879 47.17558747c1.47423732 8.10830459 1.79856983 19.51889974 14.09370684 10.49656856 8.69799871-8.40315097 20.10859385-21.02262048 24.32491104-32.43321701 1.20887435-4.18683378-2.38826395-18.8997195 21.02262185-12.91431589s58.5272131 15.62691371 56.02100869 71.17616603c-1.79856983-4.51116493-24.03006465-39.33264587-42.92978416-37.82892376-3.9214708 0.29484774-7.51860911-1.20887435-2.71259645 5.69055586a16.27557737 16.27557737 0 0 1 3.27280714 12.26565223c0 0.88454185-26.12348088-1.50372209-35.38169028 8.40315098s-21.31746822 10.79141491-15.62691369 51.62778422c3.30229055 8.43263573 12.02977405 23.58779307 39.62749359 19.84323089 5.89694793-3.30229055 12.02977405-2.12290099 24.32491242-19.51889975 1.79856983 11.79389722 12.61946951 37.20974488-36.62004942 69.0532664-5.39570813 2.38826395-7.81345685 1.20887435-13.50401271-7.51860911s-29.72061918-32.10888448-47.73579684-27.62720433c0.29484774 6.30973476 25.41584767 79.07807721-39.45058496 165.55682579-6.39818908 6.39818908-16.8063033 39.24419153 28.83607733 39.24419153-12.02977405 10.40811421-25.41584767 17.69084513-58.35030309 8.84542259-5.72003929 7.22376139-55.34286027 35.2342664-80.96510137-12.79637818 7.99036549-2.41774872 18.87023472 0.23587819 20.63931845-14.41803799 1.2678439-10.43759898 3.33177535-31.69609766-29.484741-33.64209133-34.02539205-1.97547711-145.8610174 13.44504182-152.70147809 113.57522562-0.50124114 7.25324615 2.94847464 22.55582734 5.89694792 27.3323566 8.84542257 14.32958503 24.26594286 32.04991493 46.61537681 41.66194027 13.76937432 3.21383624 54.57625751 12.79637815 65.80994402-51.24448218 3.98044036-2.38826395 67.01881839-16.01021441 101.95823706 26.53626769-9.90687307 0.79608753-56.72864327 1.20887435-56.72864326 1.20887439s-2.00496189 6.8109759 0.79608888 11.20420173c-3.21383624 0.79608753-43.63741738-5.89694793-61.91795799 38.33016492a65.19076378 65.19076378 0 0 0 71.6479224-23.2339758s1.20887435-4.80601266 8.40315097-4.39322719c10.90935401 0.58969547 76.8667219 5.18931472 79.25498584 67.63799727-2.00496189-1.59217642-34.82147958-36.03035395-56.43379553-28.01050366-0.41278682 4.00992513-3.59713831 9.19923984-0.79608753 11.61698722-10.02481216-2.80105077-61.26929297-16.83578805-74.06567247 5.60210153 7.1942766 4.00992513 42.84132984 16.8063033 68.05078545 6.81097592 7.1942766-1.20887435 10.79141491-4.00992513 20.02013954 6.39818908s39.21470677 52.83665722 6.39818907 92.87693628c0-5.21879949-12.4130761-44.05020421-20.81622841-54.45831841-1.20887435-3.98044036-9.19923984-9.61202532-17.69084514 5.89694794-5.21879949 0.41278682-6.39818908 1.20887435-8.01985027-3.21383625s-24.41336672-35.61756846-64.45364445-28.80659257c-1.20887435 2.38826395-8.49160528 10.40811421-1.8280546 16.39351647s24.88512175 34.11384637 61.09238569 26.5362677c2.38826395 0.79608753 1.44475254-2.80105077 1.97547712 3.98044035 0.79608753 9.67099488 3.33177535 62.15383617-27.21441614 85.26987288-1.59217642-7.1942766 4.00992513-61.23980818-10.40811423-58.82205948-12.79637815 1.97547711-13.59246569 8.84542257-19.19456724-2.94847463s-18.81126518-51.24448082-38.83140471-53.63274612-46.05516744-12.79637815-64.86643262 13.20916499c-4.00992513 5.89694793-8.40315097 31.22434127 5.89694792 64.07034374-7.22376139 0-56.4632803-16.42300123-46.85125361-91.69754671 8.40315097-0.38330206 46.05516744 4.4227106 58.05545671-34.40869411 0-2.41774872 2.80105077-1.62166119-5.89694927-5.21879951 0 0-68.05078411-18.01517766-111.27541601-72.65040335-15.00773345-14.41803936-64.86643263-85.29935764-29.48474099-134.5388779 18.60487177-12.58998474 56.43379553-28.21689844 70.2621394 16.83578807 1.20887435 11.41059515-5.42519291 29.48474236-24.61975878 29.48474233-10.2017208 0.58969547-21.02262048-10.82089969-13.20916499-20.43292637 6.6045825-5.89694793 21.61231596-7.1942766 10.20172081-13.79885909-4.21631854-1.79856983-15.00773345-6.6045825-32.43321566 5.39570814-5.39570813 6.6045825-7.81345685 19.224052 9.02233121 34.82147958-3.62662309 2.94847464-16.83578805 18.63435654-0.61918023 34.23178546 4.21631854 3.30229055 11.79389722 7.81345685 11.79389721-2.0934162s-1.79856983-16.51145556 12.02977405-21.61231596 43.51947962-11.32214083 42.34009005-40.95430705c-1.20887435-17.69084513 0.79608753-52.83665722-52.45335653-52.42387041 0.79608753-2.80105077 4.00992513-11.61698858 17.21909011-19.22405201-0.79608753 0 3.59713831-5.60210155-4.80601402-2.80105075s-44.43350627 4.39322718-67.66748204 60.44372065c-2.00496189 1.59217642-4.39322718-0.38330206-4.80601266-4.80601267s-6.8109759-9.61202532-8.40315232-0.79608752-13.20916498 72.06070924 45.64238061 129.73286389c-9.61202532-2.00496189-32.02043015-10.40811421-55.25440595-53.24944405-1.17938958-1.59217642 0.41278682 0.41278682-8.84542255-2.38826395s-41.63245549-20.81622841-38.83140471-58.43875877c2.94847464 0.79608753 22.40840348 25.20945426 28.01050502 12.00029063a48.59085525 48.59085525 0 0 0 0-15.21412688c-0.79608753-2.41774872-21.61231596 2.00496189-77.25002396-47.17558748-12.82586292-10.40811421-52.0405697-52.86614201-100.48400109-56.02100871 8.40315097-2.00496189 46.82177022-5.89694793 99.27512673 42.42854302 20.02013953 16.42300123 45.64238061 39.24419153 65.66252017 45.22959379 2.00496189 0.41278682 11.20420174 4.4227106 11.58750379-2.80105078s10.43759898-32.81651769 18.42796313-30.42825374c4.80601266 3.21383624 3.21383624 17.69084513 19.60735269 10.02481215 2.80105077-4.80601266 60.06041861-61.91795799 164.93764688-49.23951892 0-1.20887435-14.00525251-27.62720296-40.42358111-24.82615218-0.41278682 8.40315097 3.98044036 15.1846421-4.00992514 15.39103549s-69.46605188 9.22872463-87.2748361 23.4403692c-10.99780833 2.21135531-37.799439 6.66355205-64.86643263-1.35629821s-184.51551483-121.18228905-359.44848773-84.41481581c-3.59713831 2.00496189-4.80601266 10.40811421 2.41774871 7.22376275s110.89211396-30.84104058 201.35130288 88.86701118c3.21383624 5.60210155-0.38330206 12.82586292 20.02013953 23.58779441s148.10185883 63.24477143 137.69374463 232.19234211c-3.18435147 24.8261522-20.63931977 160.95720653-228.97850586 186.57944625-56.02101006-0.79608753-205.74452872-23.23397713-264.21277091-212.99777486-13.50401137-43.13617758-60.67959886-188.05368358 40.83636659-336.98111608 3.21383624 5.60210155 69.8788387 88.24783229 129.90977254 97.85985896 1.20887435 0.61918025 10.82089969-1.17938958-2.38826394-7.1942766s-94.67550613-49.0331255-117.93896669-97.88934374c-2.38826395-3.18435147-7.60706343-15.21412688-13.20916497-5.89694793s-18.39847834 26.53626772-24.41336674 42.04524231c-5.60210155 11.20420174-18.01517766 28.4232905-27.21441613 36.03035395-4.80601266 4.00992513-14.7423705 10.99780833 0.38330206 10.40811421 2.00496189 1.20887435 4.4227106 2.00496189-1.17938959 16.8357867s-6.8109759 32.02043015-9.61202669 44.81680833-3.59713831 25.23893903-9.61202533 35.38169027-7.13530705 12.73740861 2.38826394 13.62195045c0 10.40811421 5.21879949 90.45918759 6.42767387 116.90700097 0.58969547 8.40315097 5.89694793 11.41059515 10.20172078 10.79141628-1.20887435 5.39570813-1.79856983 5.39570813 5.39570679 19.81374612s25.8286345 64.86643263 25.8286345 87.0684427c1.20887435 3.62662309 9.61202532 3.62662309 11.41059515-1.1793896 1.17938958 7.81345685 41.42606207 60.65011407 54.63522705 67.81490592 1.20887435 7.22376139 5.89694793 30.04495169 11.41059515 13.82834523 5.39570813 2.94847464 27.21441614 21.995618 48.44343004 31.60764333 7.99036549 3.21383624 18.01517766 5.60210155 20.40344161 14.03473594 1.20887435 6.39818908 16.42300123 21.61231596 10.82090104 0 0.79608753-0.41278682 36.82644282 9.9658426 54.42883228 11.17471832s31.63712811 0.8255723 37.23922966 5.63158496 14.7423705 10.40811421 14.7423705 0c0-4.00992513 57.25936919-22.40840348 90.4886737-22.40840348 9.99532739 0 23.58779307-3.62662309 8.40315097-7.22376138 3.59713831-2.00496189 59.64763313-40.83636796 66.45860767-49.65230575 3.59713831-3.18435147 35.61756846-12.00028926 17.18960536-18.01517765 0.8255723-2.80105077 15.62691371-27.59771821 18.84074996-36.413656a190.05864547 190.05864547 0 0 1 17.18960397-32.84600246c3.59713831-4.39322718 9.61202532-12.00028926 3.59713831-9.99532739-0.79608753-8.40315097 3.62662309-64.24725239 4.83549745-72.06070923s2.38826395-24.03006465-1.82805325-23.41088442c-4.18683378 0-16.8063033-42.04524232-23.41088578-54.04553294 4.21631854-3.62662309 6.6045825-5.89694793 10.82090104 1.79856981s0.35381729 39.0672829 21.61231594 28.21689846a76.15908869 76.15908869 0 0 1 4.2163172 53.45583611c-5.89694793 19.19456723-13.82834387 55.84410141-0.61917889 51.62778287 0.61918025 7.81345685-5.39570813 33.64209-15.59742894 45.05268651s-31.8435215 41.42606207-11.41059514 37.20974351c0.58969547 2.41774872 5.39570813 3.62662309-2.94847329 12.02977541s-21.02262048 21.02262048-38.33016492 29.48474099-40.21718772 19.19456723-36.00086917 40.21718772c-5.42519291 7.22376139-46.2615595 20.43292636-72.06070922 24.03006466-18.63435654 1.79856983-36.64953417-3.59713831-32.433217 15.00773483-4.21631854 2.94847464-39.6274936 9.90687307-74.15412545-1.79856983-12.61946951-5.10086039-31.51918901-18.01517766-39.33264586 4.51116491-2.09341622 2.68311167-21.61231596 10.79141491-50.44839329-21.02262047-13.20916498-14.12319161-32.72806337-39.92233997-42.04524231-24.03006466-5.39570813 3.30229055-26.53626772-7.48912434-44.22711286-43.2246319-4.51116493-9.0223312-20.43292636-51.03808876-28.54122959-29.72061918-2.68311167 2.68311167-13.50401137-2.12290099-29.48474236-55.84410142-5.39570813-20.63931977-11.79389722-80.49334498-24.00057988-55.25440597-0.47175638 1.20887435-7.51860911 9.1402703-10.52605194-5.8969479-1.29732868-19.01765859-2.94847464-65.45612673-2.94847465-84.26739328s-3.59713831-48.44343141-12.82586294-24.82615221c-3.59713831 4.80601266-5.18931472 12.82586292-6.39818908-13.20916499s8.55057483-52.86614201 16.95372716-77.66280942z m565.87116626-462.91044689c9.28769416 0 3.39074488-5.18931472 3.39074488-5.18931473a138.90261897 138.90261897 0 0 1-19.01765858-9.52357234c-4.80601266-2.68311167-15.30258119-0.88454185-17.10114966 0s-8.40315097 5.42519291-8.10830461 8.10830458c6.89943023 8.49160528 31.51918901 6.69303681 40.83636797 6.69303681z m343.76260449 186.63841581c-0.58969547-2.38826395 0-3.18435147 0-3.18435285-4.21631854-1.09093526-11.79389722-28.0399898-11.79389586-31.04743261-4.51116493 8.10830459-1.20887435 37.53407602 2.71259645 48.06012934s9.67099488-11.49904947 9.08129941-13.82834388z m72.35555698-80.16901384c-33.02291111 6.30973476-40.54152022 30.9294949-41.13121435 36.94438193s13.79885911-1.79856983 20.63931843-6.30973476c3.98044036-12.70792382 20.49189591-30.72310148 20.49189592-30.72310148z m105.99764694 71.32359126c2.38826395 1.88702416 27.00802408 7.28273093 45.31804813 21.40592253 1.17938958 0.91402662-20.63931977-34.11384637-43.22463191-31.46021946-2.50620303 0.79608753-4.51116493 8.13778936-2.09341622 10.05429693z m-12.91431723 153.52705038c21.31746822-1.50372209 33.31775884-38.33016491 33.31775883-38.33016492-14.41803936 8.10830459-33.61260522 4.80601266-34.82147957 5.8969493 0.58969547 2.35877918 1.20887435 30.60516237 1.50372074 32.40373084z m-36.64953419-202.38326861c5.42519291-9.31717895 30.04495169-11.11574741 30.04495304-11.1157474-17.13063445-6.28024998-45.64238061 3.9214708-53.07253541 8.16727413s17.92672335 5.30725382 23.02758237 2.91898851z m-114.99049341 314.77910466a40.74791364 40.74791364 0 0 1 19.60735406 39.21470676c-7.60706343 20.02013953-29.21937939 11.61698858-31.22434126 6.81097591-5.89694793-19.19456723 9.99532739-15.21412688 12.00028926-11.20420174-0.79608753 12.00028926 8.01985028 8.40315097 10.02481216 6.39818774 2.38826395-16.01021441-1.20887435-20.02013953-4.42271061-23.58779307-23.20449237-16.42300123-33.22930453 12.02977405-32.43321698 23.23397714 1.17938958 21.61231596 27.59771821 29.21937939 41.27863954 26.53626771 23.58779307-5.89694793 25.62224108-38.83140471 25.20945427-45.2295938 16.83578805-4.80601266 17.69084513-15.21412688 17.69084513-27.24390227s-7.60706343-4.80601266-9.19923984-2.0049619c-14.41803936 11.61698858-24.44285151 5.60210155-38.03531719-4.80601266-50.86118011-33.61260522-91.40270034 15.21412688-91.40269898 15.21412552 26.56575247-18.98817382 69.79038439-6.84046069 81.02406953-3.36126011z m-60.32578156 167.50281811s36.32520168-2.12290099 41.13121568 0c0.58969547-3.9214708-22.23149484-25.23893903-53.75068521-17.13063444 3.59713831 6.51612817 12.00028926 8.63902916 12.61946953 17.13063444z m48.62034003 54.9300748l42.34008869 15.33206597c-8.40315097-27.33235525-48.94467119-34.23178547-51.95211537-32.72806337 3.0074442 4.71755833 9.61202532 17.3075431 9.61202668 17.30754309z m24.91460653 108.71024342c-0.58969547-34.23178547-9.58254056-46.85125497-15.00773345-57.05297577s-8.10830459-8.10830459-10.49656855-5.89694794c-0.29484774 2.12290099-4.06889469 21.02262048-4.06889467 21.02262048 6.54561296 0.08845432 25.97605701 34.93941866 29.57319667 41.83884892z m-74.74382092 59.7360861c2.09341622-0.58969547 15.92176007-31.81403675 14.1231916-56.72864327l-19.224052 13.20916499c0.79608753 6.22128044 6.89943023 33.5241509 5.1008604 43.43102532z m-173.6946138-102.22360003a80.19849723 80.19849723 0 0 0 18.78178041 65.16128037c-1.20887435-7.22376139 0.88454185-47.17558749 0.88454186-47.17558748-3.59713831-1.71011551-17.57290605-18.07414719-19.66632227-18.07414584zM76.65426957 259.06124293c19.224052-7.1942766 24.03006465 0 28.83607733 5.89694794 16.21660781 19.19456723 6.6045825 49.82921439 4.18683377 65.45612673a435.1947896 435.1947896 0 0 0-4.18683377 66.63551633c0 30.63464717 3.59713831 9.61202532 4.18683377 5.89694929 1.20887435-78.66529173 16.83578805-99.48151878 25.23893902-118.70557079s-12.02977405-3.59713831-12.02977539-3.5971383c-5.89694793-65.8394288-43.22463189-42.22215096-51.0380874-30.33979944s1.20887435 11.14523219 4.80601267 8.75696824z m60.29629679-38.86089084C105.04807666 184.31742203 78.15799166 210.70626587 73.351979 215.51227853s2.09341622 6.6045825 3.92147081 4.68807356c18.01517766-19.66632225 46.23207473-3.77404694 54.6352257 3.42023103s5.04189085-3.42022967 5.04189085-3.42023103z m193.86217855-74.03618633c-28.83607732-49.82921439-69.67244529-36.62004942-78.66529172-34.23178547 10.2017208 2.41774872 33.61260522 27.62720296 39.03779811 39.03779812 12.58998474 48.03064456-28.21689844 85.85956834-38.33016491 91.87445671s-1.79856983 9.61202532 4.21631855 6.60458113c84.65069397-64.24725239 35.38169028-120.71053268 24.03006467-128.49450476 12.00028926-5.42519291 38.33016491 20.99313571 45.02320037 25.20945427s4.68807357 0 4.68807493 0z m-113.63419517 171.15892733c75.65784753-34.23178547 150.10682072-7.22376139 150.1068207-7.22376276-5.39570813-13.20916498-63.65755828-25.8286345-70.76338054-29.48474099 19.224052-12.58998474 33.61260522-40.83636796 37.82892378-54.04553293s-5.89694793-2.38826395-8.40315099 0c-17.42548218 33.02291111-39.6274936 45.64238061-55.2544073 52.24696311a127.19717609 127.19717609 0 0 0-53.42635134 34.82147959c-5.51364722 6.66355205-0.08845432 4.27528809-0.08845431 3.68559398z m-30.63464716 6.60458112c16.21660781-24.03006465 51.65726764-43.25411667 51.65726763-43.25411533-4.74704312-11.38111038-39.03779813 10.82089969-44.46299103 13.8283439-10.34914466-45.5539263-48.67930822-15.03721824-51.0380874-8.40315233s-2.94847464 5.39570813 0 5.89694927c9.0223312-7.1942766 20.43292636-13.79885911 32.43321564-11.41059515s9.61202532 28.92453164 11.41059516 43.34256964z m210.16724067 288.95047015c-22.20201007-17.39599741-36.03035395-19.81374611-37.59304693-13.20916364s-8.31469664 6.6045825-15.24361165-1.79856983c-14.30010025-17.21908876-26.30038952-20.90468139-34.23178546-20.93416615a57.37730827 57.37730827 0 0 1-17.69084514-1.53320687 148.04288928 148.04288928 0 0 1-32.99342498-15.36155074c-17.69084513-12.00028926-13.50401137 2.94847464-8.10830459 6.60458251 20.43292636 14.41803936 127.31511518 48.64982347 141.73315453 53.57377655s4.12786423-7.45963958 4.12786422-7.45963956zM170.32729475 689.03723306c-12.58998474 9.61202532-28.80659256 2.94847464-33.61260656 0-35.38169028-30.04495169-13.20916498-122.50910251-13.20916365-122.50910253-52.1585088 120.0913538 24.50182104 148.92743112 32.40373087 149.51712661-23.41088442 40.83636796-3.59713831 67.81490591 2.41774873 73.26958358 18.60487177 11.41059515 15.00773345 24.03006465 16.21660781 32.43321565 46.82177022 162.16608088 178.32371916 147.1288613 204.74204777 144.71111257 111.68820284-24.61975878 120.71053268-111.68820284 121.30022816-131.5019476 8.69799871-109.56530049-88.86701253-161.54690063-103.1965962-167.53230424s-16.8063033-4.21631854-20.40344158 0c-63.45116486 24.2069733-100.86730181 85.26987287-111.09850736 95.7664414s-1.79856983 17.69084513 2.41774872 17.69084512c68.69944912 5.13034518 77.45641737-42.63493643 79.25498584-49.23951893s2.41774872-6.6045825 2.41775006-7.81345548c53.4263527-10.2017208 79.25498585 24.61975878 84.0609985 30.01546691-16.8063033-10.2017208-51.65726764-3.59713831-53.45583747 0 1.20887435 7.81345685-2.38826395 9.61202532-2.94847327 9.3171776-16.8063033-0.88454185-37.82892377 18.92920427-43.22463191 24.32491241s-1.79856983 3.59713831-0.58969547 5.89694793c16.8063033-0.61918025 56.43379553-9.0223312 63.03837802-14.418038 57.64266988-6.6045825 63.03837804 61.23980818 61.91795798 70.76338055-18.01517766-34.82147958-40.83636796-39.6274936-42.63493643-36.03035529 0 7.81345685-9.0223312 9.0223312-11.41059515 8.40315233-9.0223312-8.99284644-42.04524232-7.1942766-58.26185013-2.38826394s-5.39570813 10.2017208 1.20887435 11.41059514c28.21689844 7.81345685 66.04582221 4.18683378 73.2695836 4.18683241 33.02291111 36.64953417 10.79141491 84.09048327 3.59713831 88.8964973-3.59713831-57.05297578-23.41088442-56.4632803-28.83607735-54.04553157s-7.1942766 1.17938958-10.79141489-1.20887437c-32.43321563-20.43292636-60.65011407-11.41059515-60.59114455-11.41059515 19.31250633 27.00802408 50.9791192 31.81403675 64.18828284 35.38169028 10.82089969 45.02320037-17.42548218 63.03837804-24.61976014 66.63551631 2.94847464-5.39570813-0.58969547-37.82892377 0-42.01575753a25.2684238 25.2684238 0 0 1-20.2265316-8.01985029c-33.61260522-32.81651769-67.25469658-23.20449237-78.4588983-22.40840347s-1.59217642 8.84542257-1.59217642 12.79637816c10.40811421 21.61231596 30.42825374 35.2342664 41.6324555 39.24419156-62.44868391 6.39818908-79.25498585-34.43817887-88.07092364-49.65230576 47.17558749-16.74733374 48.03064456-44.02071943 48.03064456-48.03064457-53.86862294-13.47452659-67.81490591-24.59027535-74.80279047-32.66909383-2.12290099-2.47671827-2.15238575-8.16727414-0.67814978-8.84542256 19.81374611-10.29017513 34.34972456-17.13063445 41.07224614-10.40811287 12.79637815 17.69084513 9.58254056-1.62166119 9.58254056-8.84542255 0-23.23397713-19.19456723-14.7423705-19.60735271-21.22901526-6.39818908-67.63799727 30.42825374-66.04582221 44.05020419-70.43904803s12.79637815-7.22376139 18.39847837-13.03225635c16.01021441-19.8432309-2.00496189-18.19208629-3.18435149-15.80382101-2.00496189 12.00028926-28.4232905 16.01021441-29.24886414 15.80382101-26.80163067 6.9878832-42.01575755 26.53626772-42.54648213 40.24667384s-4.68807357 7.99036549-5.89694928 6.39818773c-36.64953417-19.01765859-37.82892377 24.61975878-36.64953418 29.83855962 2.41774872 18.01517766 16.8063033 15.62691371 20.02014089 14.74237051 14.7423705-5.89694793 10.40811421-16.01021441 10.40811284-21.19952914-8.40315097-13.62195046-9.99532739-1.20887435-9.19923848 4.39322584 0.79608753 9.61202532-8.84542257 4.59961924-11.20420175 1.59217642-4.21631854-11.41059515 2.94847464-22.82119032 17.39599741-20.99313572 26.53626772 6.6045825 16.21660781 26.53626772 14.74237049 37.82892378-58.96948336 51.62778287-51.50984378-30.04495169-48.50239959-40.83636797 43.22463189-79.28447062 124.89736646-89.48619142 139.90509993-90.69506577-46.05516744-12.53101518-116.31730687 42.10421187-128.93677637 51.71623721z m205.36122667 55.8441014c6.6045825-1.79856983 41.45554684 0 41.45554685 0-5.89694793-11.41059515-41.45554684-17.42548218-54.0455316-18.01517764s8.40315097 14.41803936 12.58998475 18.01517764zM420.12202769 804.02772644c0 2.09341622 15.62691371 6.89943023 30.63464715 19.51889974 0 0-18.60487177-38.33016491-37.23922965-39.03779947-2.38826395 3.59713831 6.6045825 17.42548218 6.6045825 19.51889973z m-9.70047966 65.75097448c8.43263573 3.62662309 16.83578805 19.81374611 18.63435653 27.62720299 5.57261677-17.69084513-7.81345685-55.25440595-7.81345685-55.25440596-2.15238575-6.86994546-13.76937432 19.8432309-10.82089968 27.62720297z m-41.27863956 43.8438108c2.41774872 6.6045825 4.80601266 25.8286345 5.89694928 29.48474234 10.23120557-7.78397208 7.81345685-45.64238061 7.81345549-45.64238061-5.95591747 13.76937432-14.35906979 10.76193013-13.71040477 16.15763827z m-115.28533979-16.21660781c-2.38826395-1.79856983-15.00773345 0.91402662-18.01517763 9.02233119 0 2.38826395 19.81374611 25.20945426 46.23207473 24.6197588-0.05896955 0-28.27586799-22.23149484-28.27586664-33.64208999z m-116.84803277-412.78638613c23.17500759 34.43817887 52.80717245 83.67769781 160.89823699 127.52150861 59.2348463 26.21193519 198.55025211 77.42693259 208.16227744 172.30883214 3.18435147 25.2684238 35.38169028 158.15615575-131.32504033 191.00215686-33.61260522 1.59217642-169.71417478 7.99036549-208.95836631-153.73344381-3.21383624-10.40811421-13.62195046-32.02043015-10.40811287 13.20916498-5.60210155-0.79608753-23.58779307-17.69084513-21.22901523-38.03531717-1.17938958-4.00992513-5.89694793-15.21412688-8.84542258 2.00496189-1.14990481 22.37891871 38.33016491 155.50252885 157.09470526 194.0685706a304.37099043 304.37099043 0 0 0 36.88541237 6.78149113c58.02597195 4.62910402 170.51026231 2.94847464 206.18680034-120.71053268 0.79608753-6.39818908 42.98875371-146.92246925-125.16272943-231.83852619-33.58312044-16.48197077-84.23790714-32.19733744-131.41349465-58.61566607-12.4130761-6.928915-45.1116547-28.71813824-51.56881332-33.37672837-38.33016491-27.77462684-111.80614057-101.10317999-47.52940476-216.18212771 0 0 23.20449237-61.6820798-24.03006466-42.10421052-11.26317129 17.16011921-52.0405697 85.24038809-8.81593781 187.72935108z m552.16076148-138.78467987c-1.14990481 0.41278682-26.38884383 3.42022967-28.77710779-12.94380203-0.64866367-4.27528809 35.38169028 3.9214708 35.38169027 3.92147081 6.22128044 2.62414213 0.64866367 6.33921953-6.66355203 9.05181597z m58.2913349 8.84542257c-84.29687669 49.56385143-112.8970772-1.41526777-120.4156863-19.54838452-4.51116493-10.85038445 15.92176007-14.12319161 19.81374612-3.36126012 27.62720296 47.41146433 51.65726764 21.96613324 61.91795798 13.26813452 8.13778936-6.95839842 30.16289078 1.91650757 38.8019213 5.89694795 2.09341622 0.8255723 1.00248094 2.97795941-0.17690864 3.65610783z m-274.20809965-196.42734978c9.90687307-21.90716368-15.00773345-30.9294949-16.21660783-32.10888449 45.02320037-50.74324102 107.76673201-34.52663321 107.76673067-34.52663321 10.23120557 4.18683378 2.12290099 7.1942766-6.89942886 8.84542258s-27.9220507 15.15515732-30.60516238 14.74237184c-2.94847464-0.88454185-25.8286345-0.58969547-35.38169028-0.29484771s-7.34170048 10.82089969 10.43759897 10.0837817c9.61202532-0.38330206 5.48416247 5.89694793 4.27528673 7.9608807a112.48429035 112.48429035 0 0 0-32.13836789 68.66996299c-6.6045825 4.45219537-13.79885911 10.55553809-25.50430199 24.38388196s18.01517766-2.94847464 23.41088578-0.29484774c0 6.30973476 5.10086039 51.33293514 5.89694794 58.49772833s5.39570813 3.65610785 7.1942766 3.65610784c-2.94847464 10.2017208-1.20887435 46.82177022 0 51.12654173 2.41774872 0.67814843 7.81345685-14.50649367 13.20916498-18.72281086 5.42519291 22.82119032 54.04553158 48.64982347 58.26185014 55.37234503 1.38578299 19.16508247 18.01517766 32.90497201 25.20945426 34.73302662-1.20887435-4.21631854-2.38826395-9.61202532-2.3882653-24.03006467 4.80601266 1.20887435 80.46386019 27.00802408 88.24783363 30.01546691-1.79856983 21.02262048 12.61946951 33.64209 19.40095929 34.82148096-2.94847464-5.39570813-1.97547711-20.99313571 0-30.0154683 50.12406077 10.82089969 68.8763564 52.83665722 68.28666228 58.26185016-33.64209-54.66471182-53.45583747-5.89694793-51.65726764 0-37.82892377-10.23120557-65.45612673-59.47072449-68.43408615-63.65755691-33.64209-18.63435654-35.38169028 8.99284644-33.0229111 12.61946951s-1.20887435 5.89694793-2.9484733 4.77652788c-25.8286345-1.79856983-51.65726764-30.01546692-59.55917881-43.22463189-14.50649367-28.21689844-35.38169028-34.82147958-38.33016491-29.95649737a10.58502285 10.58502285 0 0 1-12.61946952 4.74704309c-21.40592254-11.41059515-22.20201007-58.26185012-23.41088443-87.09792745s-28.80659256-21.61231596-37.23922965-19.93168521c-14.97824869-42.72339075 36.9738667-91.04888305 44.78732354-99.54048833z m166.02858081 351.31069838c-4.80601266 5.89694793-56.84658236-28.4232905-61.65259503-30.01546693-5.89694793-4.4227106-71.67740717-51.65726764-81.67273456-58.26185013s-6.8109759-7.40067003-2.94847465-12.20668268c22.02510279-17.69084513 66.87139451 35.02787299 66.87139452 35.02787298 5.89694793 9.0223312 25.20945426 36.03035395 30.75258625 35.38169028 27.18493136 6.6045825 18.48693267-13.20916498 20.87519661-20.43292636 17.42548218-8.84542257 64.24725239 27.03750886 75.83475619 42.63493778 31.43073469 22.23149484 55.22492118 8.60954438 55.22492253 8.60954439-15.36155074 18.42796313-60.20784248 13.09122589-71.02874352 12.82586293-14.7423705 1.17938958-17.69084513-24.8261522-25.59275632-38.03531719s-10.02481216-1.20887435-8.01985026 5.18931472 4.98292129 13.17968021 1.385783 19.19456589z m543.13843025-249.20503744c7.3122157-18.01517766-3.9214708-24.61975878-7.10582227-27.03750887-16.03969917-11.20420174-27.24390092 12.82586292-43.19514714 28.03998979s-52.48283995 7.60706343-65.24973334 0c-10.76193013-11.61698858-64.51261534-35.38169028-73.21061403-39.24419154 18.39847834-5.21879949 60.7385684 15.21412688 83.55975735 25.62224108 30.84104058 11.61698858 41.27863821-16.01021441 42.04524231-24.03006467 2.38826395-28.4232905-43.22463189-32.02043015-47.17558613-34.02539204 54.42883363-26.53626772 68.05078411 22.82119032 68.0507841 22.8211903 1.20887435 3.42022967 4.39322718 4.00992513 7.99036414 2.80104942 26.03502656-8.40315097 37.65201513 2.80105077 41.66194028 8.19675891 15.15515732 25.35687813-2.15238575 38.68398083-7.34170049 36.76747328z m-733.28553006 135.62981181c18.36899359 12.85534771 27.86308115 16.6883642 32.43321565 17.69084513 2.71259645 0.64866367 4.157349 2.06393143 4.21631855 2.77156601 1.03196572 10.61450763-25.65172587-5.24828427-41.2786382-16.8947576-16.98321193-12.58998474-0.97299617-6.57509772 4.65858879-3.77404695z m363.07511083-188.37801609c0-1.79856983-22.82119032-0.88454185-27.30287045-0.58969411-5.51364722 2.65362692-25.53378677 7.51860911-58.26185015 9.61202532-48.3254923 3.30229055-46.52692247-37.23922967-43.51947829-51.03808739s40.21718772-31.22434127 41.42606208-34.52663321c-2.94847464 4.18683378-28.5412296 3.59713831-39.33264586 2.94847463 1.50372209-39.6274936-30.63464717-57.02349099-39.33264587-62.12435138-69.96729303-45.64238061-107.17703655-37.53407602-135.42341977-36.94438193-36.03035395-5.89694793-37.50459127 25.8286345-37.82892376 37.82892378-35.70602279-35.38169028-13.20916498-55.84410141 11.7938972-67.81490593 39.95182477-17.69084513 123.09879664 7.48912434 133.33000221 9.90687307 9.28769416-27.33235525 63.03837804-11.41059515 68.75841868-7.22376137-57.05297578 30.9294949 4.48168015 58.55669787 20.63931976 61.26929294 30.33979942 0.58969547 21.61231596-27.33235525 20.63931843-33.05239586-16.51145556-39.33264587-71.17616739-60.94496182-94.58705181-71.14668125-39.92233997-15.00773345-49.53436666 9.90687307-52.83665722 16.80630329-37.23922967-33.31775884-10.49656853-46.23207473 5.39570813-53.07253543 48.94467119-17.42548218 136.30796162 52.24696312 136.30796162 52.24696176 19.224052-21.02262048 62.44868391-5.89694793 70.2621394 0-27.30287045 4.27528809-32.43321563 9.84790352-34.05487682 16.01021577a79.01910766 79.01910766 0 0 0-1.20887436 19.13559631c5.07137562 18.07414719 30.3692842 31.90249106 41.27863821 34.49714842 60.03093385 2.41774872 63.21528667 25.17996948 58.9694847 35.38169029-1.06145049 2.56517259-7.10582229 6.42767386-7.78397209 8.84542258-1.32681344 4.59961924 0 11.79389722 4.00992515 14.7423705s13.59246569 2.3292944 20.63931841 1.26784389a40.24667249 40.24667249 0 0 0 11.52853425-5.83797837c6.95839842-5.89694793 14.7423705-10.0837817 20.19704818-14.97824869-0.58969547-28.83607732 17.42548218-28.83607732 25.82863449-30.63464717a36.50211033 36.50211033 0 0 1 34.23178547 27.0080241c37.82892377-1.79856983 16.21660781 27.03750886 16.21660782 37.23922829 5.89694793 5.39570813 26.53626772-38.33016491 30.60516239-44.43350627 2.41774872 4.80601266 1.79856983 16.8063033 2.41774872 25.20945427s16.21660781-8.40315097 21.6123146-7.1942766c0 14.41803936 0.38330206 11.41059515-7.19427661 23.41088578-12.64895427 12.14771314 8.84542257 9.37614847 17.27805831 7.84294026 1.59217642-0.29484774 1.56269162 1.03196572 0.8845432 1.8280546-12.9732868 14.94876392-3.65610785 20.46241114-1.35629823 22.17252529 18.01517766 4.18683378 50.41890852-0.61918025 60.03093384-1.79856847 58.26185012-21.64180072 33.64209-80.49334498 33.64209135-80.49334498-39.03779813-78.07559624-168.74117726-35.94190098-184.95778643-31.84352153-72.06070924 10.82089969-86.44926381-16.21660781-93.08332971-28.83607732-12.58998474-52.83665722 33.64209-59.44123973 58.96948335-63.65755825 48.64982347 2.41774872 47.44094909 22.82119032 51.03808874 38.33016491-12.00028926 39.6274936-61.91795799 15.59742892-72.03122445 9.61202532 49.23951893 15.59742892 51.03808876-1.79856983 57.02349099-4.80601265 10.2017208-36.05983872-31.81403675-33.02291111-43.22463189-33.64209136-67.81490591 19.224052-36.03035395 52.24696312-28.83607734 62.4486839 17.42548218 19.8432309 91.87445535 2.94847464 120.12083859-4.77652789 77.45641737-11.41059515 97.8598576 2.94847464 109.86014822 10.20172081 67.25469658 42.01575755 47.44094909 95.47159364 40.83636661 108.68075864-43.81432602 61.91795799-105.29001375 36.64953417-129.73286391 29.04247073s-23.58779307-1.62166119-24.8261522 1.17938961c-11.20420174 29.63216621-21.19952913 32.43321563-19.99065612 26.5362677s0-7.57757866-5.89694792-24.00057991-18.42796313-8.40315097-19.22405201-5.60210153c-5.89694793 10.52605331-12.00028926 14.7423705-13.20916364 20.40344158-1.20887435 24.8261522-17.69084513 32.84600247-21.1995291 30.0449517a41.27863821 41.27863821 0 0 0-4.42271198-16.03969918c-3.21383624 2.80105077-17.69084513-0.79608753-22.02510142-3.5971383 13.00277157-2.29980963 17.21908876-18.81126518 17.21908875-21.61231596-22.02510279 11.20420174-44.43350627 10.40811421-49.23951892 12.00028927 6.39818908 1.62166119 41.89781845 29.33731849 52.45335517 38.33016493 18.16260153 7.60706343 27.50926388-5.30725382 36.5315951-14.24113071 3.39074488-3.39074488 1.38578299 22.79170553 2.35878052 25.44533244 2.53568782 7.01736796 29.07195553-10.64399241 1.50372074-43.0182385-2.53568782-2.94847464 0.23587819-8.07881983 2.32929576-7.66603298 20.02013953 11.5875038 17.3075431 39.48006972 16.51145418 63.89343647-5.18931472 55.63770801-42.42854302 56.02101006-51.62778286 53.66222952 24.8261522-25.23893903 3.59713831-24.03006465 3.59713966-22.43788825-28.4232905 47.64734251-93.26023835 24.41336672-97.68295031 20.81622708 63.65755828-14.00525251 30.84104058-55.22492118 25.62224109-61.2398082-20.81622841-16.8063033-24.41336672-4.00992513-24.82615357 0.38330204-2.3292944 37.68149991-11.79389722 64.30622192-22.79170553 83.4713044-5.89694793-2.38826395-11.97080584-4.51116493-18.13311538-6.45715861 22.02510279-44.40402148 23.11603805-102.10566094 23.11603667-103.52092871z m172.04346918-29.72061919c4.18683378 5.42519291 8.40315097-8.10830459 9.31717893-14.74237049s-4.21631854-3.89198605-7.5186091-3.5971383c-4.48168015 0.58969547-1.76908506 18.13311674-1.76908506 18.13311539z m-51.74572197 18.92920427a25.76966495 25.76966495 0 0 1 0.76660276-8.34418141c0.32433251-1.29732868-0.53072593-3.53816876-2.03444666-3.3317767-2.771566 0.41278682-6.69303681 1.85753938-6.54561295 6.60458249 0.50124114 10.49656853 8.34418142 15.95124486 7.84294164 4.86498222z m13.20916499-65.86891356c2.09341622 10.61450763 6.54561296 7.99036549 7.40067001 6.8109759 1.09093526-2.94847464 0-5.89694793 6.39818909-5.89694927 10.40811421-5.60210155 12.82586292-24.0005799 11.61698858-27.21441615-8.84542257-13.56298092-14.97824869 11.32214083-17.13063581 22.34943393-0.58969547 2.94847464-2.771566 2.53568782-3.7150774 1.47423731a38.62501129 38.62501129 0 0 0-20.78674364-12.61946951c-23.91212557-3.68559262-16.71784897 10.73244537-10.11326649 13.12071068 11.14523219-0.64866367 23.02758373-0.64866367 26.35936043 1.76908368z m-75.33351639 22.11355709c-1.35629823-1.56269162-3.53816876-4.30477287-5.57261541-6.72252157-0.67814843-0.8255723 0.14742387-1.85753938 1.17938958-1.65114598 38.91985904 7.51860911 45.1116547 2.56517259 53.07253541-1.9754771 7.81345685-6.45715862-0.58969547-7.96088071-2.94847464-7.96088073-18.8997195 4.21631854-30.9884631-15.27309643-30.98846308-15.2730964-9.31717895-3.18435147 4.18683378 12.82586292 5.10086038 16.42300123s-2.94847464 3.89198605-8.58006094 2.77156599c-14.88979437 0-38.86088947-7.28273093-40.65945798-7.28273093 1.79856983 11.41059515 13.79885911 19.224052 21.90716233 24.91460651s9.40563327-1.12042004 7.48912435-3.24332102z m100.95575612 76.984661c-8.55057483 7.99036549-25.09151515 10.64399241-25.09151516 10.64399105s0-10.64399241-4.12786422-17.0716649c-6.54561296 4.00992513-29.21937939 0-29.21937804 0v20.2560177s-25.12099995 2.94847464-26.71317635 2.18187056c56.16843394 33.61260522 85.26987287-16.01021441 85.26987286-16.01021441z m-93.17178405 10.64399105h20.81622844s2.94847464-46.67434633-17.366514-31.46021947c0.5602107 16.8063033 3.36126012 21.61231596-3.44971444 21.19952911a78.34095922 78.34095922 0 0 0 0.11793909 10.26069036z m-34.32023978-34.52663187a136.69126368 136.69126368 0 0 0 20.10859386 19.66632228c2.53568782 2.3292944 10.70296195 8.52109007 14.12319161-0.58969548 1.17938958-5.30725382 2.03444667-5.39570813-3.42022967-11.61698722 0 0-23.20449237-29.21937939-33.61260522-20.43292636-1.97547711 3.21383624-3.98044036 3.9214708 2.80104942 12.97328678z m-2.80104942-101.04421041s-20.40344159-33.61260522-67.63799862-32.81651771c1.59217642 6.39818908-0.79608753 10.40811421-10.40811422 9.61202534s-46.43846815-1.62166119-31.6371281 4.80601266c7.22376139 0 21.64180072 4.80601266 10.82090104 6.39818909s-31.63712811 2.94847464-31.63712811 12.00029062c7.22376139 1.20887435 57.67215467-4.39322718 65.27921811 11.23368651 7.99036549 12.79637815 22.82119032 23.20449237 40.42358113 11.58750379 1.59217642-2.00496189 5.18931472-7.60706343-0.79608754-5.18931473s-18.8997195 9.40563327-31.63712811-8.4326371a30.33979942 30.33979942 0 0 1-1.56269163-6.22128042c-0.41278682-2.59465736-2.94847464-5.27776903-14.74237049-5.45467632-3.59713831-0.7076332-8.84542257-6.30973476-1.17938958-6.7225216s22.79170553-3.21383624 23.20449099 1.59217643-5.18931472 14.41803936 8.01985027 21.61231595c5.33673858 1.03196572 10.61450763 2.94847464 17.48445172-6.98788455a39.3916154 39.3916154 0 0 1 5.45467768-6.25076521c2.94847464-0.85505707 6.51612817-2.06393143 9.28769283 2.6536269 3.2728058 5.80849362 20.90468139 13.41555705 11.2926574-3.42022965z m-9.99532873 58.58618128c5.89694793 0 4.59961924-7.22376139-2.94847327-10.8208997-5.60210155-2.94847464-26.83111545-9.99532739-57.64267127-13.91679816s-36.03035395 7.10582229-40.04027906 11.79389583c-5.60210155 19.224052 2.41774872 22.82119032 8.01985026 27.15544796 16.01021441 5.15982993 14.7423705-7.93139595 14.7423705-9.93635784-5.89694793-7.22376139-1.20887435-12.00028926 1.62166119-13.20916498 7.99036549-2.94847464 10.2017208 4.80601266 8.63902915 12.00029063-1.44475254 6.69303681-13.06174112 18.81126518-22.67376645 24.76718265-18.01517766 11.97080584 2.80105077 10.87986923 11.23368653 8.84542257a55.49028414 55.49028414 0 0 0 41.27863819-45.64238063c1.35629823-5.98540225 32.16785404 8.43263573 37.76995423 8.96336167z m-16.80630192 9.61202668c-17.69084513-2.71259645-21.58283118-0.14742387-23.4108858 2.29980963-0.88454185 1.17938958 1.00248094 11.79389722 3.80353172 11.79389586s15.59742892 0 19.60735408-2.27032486c5.60210155-9.6415101 0.1179391-11.94132108 0.11793908-11.94131972z m-10.8798706-61.91795798a5.48416247 5.48416247 0 1 1 5.48416245-5.48416247 5.45467767 5.45467767 0 0 1-5.48416245 5.4251929z m-26.35935906 242.01076083c-21.19952913 17.189604-20.02013953-3.62662309-12.79637817-9.02233121a99.62894266 99.62894266 0 0 0 19.93168658-24.59027401c5.89694793 1.85753938 11.79389722 3.86250125 17.69084514 6.07385658a135.6298132 135.6298132 0 0 1-24.82615355 27.47977909zM154.70038104 336.98941533s-36.62004942 30.54619285-7.1942766 145.15338418c-4.80601266-8.99284644-44.43350627-93.79096428-6.60458248-159.21760624 6.6045825-6.42767386 20.99313571-9.87738829 13.79885908 14.06422206z m334.62233555 322.06183557c-7.04685274-8.84542257-46.96919407-25.85811928-52.45335517-29.48474235 5.33673858-24.0005799 31.90249106 4.21631854 40.30564203 12.02977541s16.21660781 14.41803936 23.97109514 16.80630193c14.94876392 1.20887435 33.67157477 39.6274936 33.67157476 39.62749358 1.47423732 2.86002031-40.83636796-31.81403675-45.49495676-38.97882857z" fill="#d81e06" p-id="7525"></path></svg>